<svg xmlns="http://www.w3.org/2000/svg" version="1.0" preserveAspectRatio="xMidYMid meet" viewBox="940.37 229 2878.93 1696.28">

<g transform="translate(0.000000,3672.000000) scale(0.100000,-0.100000)" fill="#000000" stroke="none">
<path d="M19395 34412 c-74 -46 -2205 -2170 -2205 -2198 0 -20 23 -51 145 -199 362 -436 623 -892 749 -1308 180 -592 231 -1225 141 -1742 -125 -713 -299 -1166 -641 -1662 -157 -228 -359 -452 -584 -646 -58 -50 -136 -120 -175 -156 -219 -200 -669 -467 -1055 -624 -147 -60 -373 -122 -589 -162 -75 -14 -172 -32 -216 -40 -174 -32 -277 -39 -525 -39 -277 0 -441 12 -650 49 -144 25 -333 65 -415 88 -113 32 -232 69 -265 84 -50 22 -81 35 -205 88 -435 186 -862 471 -1155 769 -35 36 -71 66 -78 66 -8 0 -175 -159 -371 -353 -520 -517 -1108 -1095 -1499 -1476 -297 -289 -393 -391 -366 -391 4 0 1 -6 -5 -14 -9 -11 -3 -24 27 -62 60 -75 2054 -2088 2012 -2031 -7 9 -8 17 -2 17 14 0 35 -28 28 -38 -3 -5 11 -24 32 -43 20 -19 28 -24 18 -11 -25 29 -6 29 22 -1 24 -26 29 -42 10 -31 -7 4 3 -9 21 -29 34 -37 55 -51 31 -22 -8 10 -9 15 -2 15 6 0 16 -9 22 -20 6 -11 7 -20 3 -20 -4 0 41 -49 101 -109 61 -61 113 -108 116 -106 9 6 42 -30 35 -37 -3 -3 3 -11 12 -19 17 -13 17 -13 4 6 -8 11 10 -4 41 -34 37 -35 54 -59 50 -69 -4 -11 -1 -14 11 -9 16 6 42 -15 30 -26 -8 -8 315 -335 339 -343 10 -3 17 -8 16 -12 -2 -8 -3 -6 428 -433 164 -163 311 -310 326 -325 14 -16 35 -38 47 -48 11 -10 18 -22 16 -27 -6 -8 14 -24 30 -24 5 0 14 -10 21 -22 14 -30 46 -64 52 -58 10 9 52 -38 52 -58 0 -10 9 -21 20 -24 11 -3 20 -11 20 -17 0 -14 67 -82 78 -79 4 1 9 -1 12 -4 3 -4 -2 -3 -10 2 -8 4 14 -22 49 -58 36 -36 68 -64 73 -61 5 3 7 1 6 -4 -3 -9 71 -95 94 -107 7 -4 -9 16 -37 46 -43 47 -41 45 18 -11 37 -35 67 -70 67 -78 0 -7 4 -10 10 -7 5 3 7 0 4 -8 -3 -8 2 -17 11 -21 11 -4 14 -2 9 7 -4 6 5 1 19 -12 30 -27 36 -41 10 -20 -15 11 -15 10 1 -8 10 -13 23 -20 27 -17 5 3 6 -3 2 -12 -5 -14 -3 -16 12 -10 11 4 16 4 12 0 -10 -10 44 -65 56 -57 6 3 7 1 4 -4 -8 -13 27 -46 37 -36 4 5 6 1 4 -7 -2 -8 3 -14 9 -13 7 2 12 -3 10 -10 -1 -6 4 -11 11 -9 8 1 11 -2 8 -7 -8 -12 34 -42 47 -34 6 3 7 2 4 -4 -8 -13 57 -76 67 -66 4 5 6 3 4 -3 -2 -6 40 -51 92 -101 146 -138 178 -165 188 -159 5 3 18 -4 28 -17 l19 -22 -25 19 c-14 11 -8 2 13 -18 21 -20 42 -34 47 -31 5 3 12 0 16 -6 5 -8 3 -9 -6 -4 -9 5 -11 4 -6 -3 4 -7 12 -12 17 -12 6 0 22 -14 36 -31 14 -16 32 -28 39 -25 8 3 13 0 11 -7 -1 -7 4 -11 11 -9 8 1 11 -2 8 -6 -19 -31 707 -531 1039 -715 174 -97 323 -173 530 -269 270 -126 492 -218 480 -198 -3 5 0 10 7 10 16 0 58 -29 43 -30 -14 -1 185 -90 201 -90 7 0 16 -4 19 -10 4 -6 -12 -10 -42 -9 -210 5 -7494 -16 -7502 -21 -8 -4 -9 -76 -5 -239 l7 -233 26 -16 c23 -16 70 -17 526 -12 758 8 4493 6 5670 -3 572 -4 5610 -8 11195 -10 7342 -2 10160 -6 10174 -14 14 -7 28 -8 45 -1 15 5 249 14 531 18 278 5 524 12 547 15 32 5 42 11 46 28 3 12 9 126 13 253 l7 231 -24 6 c-13 3 -103 2 -199 -3 -403 -22 -651 -7 -762 45 -29 13 -122 55 -205 93 -196 89 -825 453 -1198 692 -82 53 -164 105 -182 116 -17 10 -72 46 -122 79 -49 33 -143 94 -208 135 -170 108 -370 243 -508 343 -445 322 -584 425 -661 491 -121 103 -166 139 -264 213 -52 40 -133 102 -180 138 -47 37 -109 85 -138 107 -55 41 -339 277 -402 334 -19 17 -73 62 -120 100 -126 101 -594 493 -682 571 -130 116 -389 344 -463 408 -147 127 -708 627 -880 784 -180 165 -1197 1117 -1395 1307 -58 55 -188 179 -290 274 -282 265 -1371 1328 -1529 1492 -20 21 -42 38 -48 38 -7 0 -13 6 -13 13 0 16 -51 67 -67 67 -6 0 -17 8 -24 17 -12 15 -12 16 1 8 8 -4 0 8 -19 28 -19 20 -37 34 -41 32 -10 -6 -32 20 -24 28 9 9 -287 307 -298 301 -5 -3 -7 -1 -6 4 3 10 -166 185 -897 922 -231 234 -591 599 -800 813 -209 213 -384 387 -390 387 -5 0 -37 30 -70 67 -33 36 -74 80 -91 97 -18 17 -37 41 -43 54 -7 12 -18 22 -27 22 -8 0 -24 16 -36 35 -11 20 -33 42 -48 50 -15 8 -33 27 -39 44 -8 17 -23 32 -37 35 -15 4 -31 20 -41 41 -9 19 -22 35 -29 35 -19 0 -54 41 -54 62 0 10 -10 20 -25 24 -13 3 -27 14 -30 24 -9 29 -46 71 -56 65 -5 -4 -9 1 -9 10 0 10 -5 13 -12 9 -7 -5 -9 -2 -5 8 6 18 -65 93 -78 81 -4 -5 -5 -3 -1 4 9 15 -202 235 -217 226 -6 -3 -7 -1 -3 5 4 7 -37 58 -100 124 -59 62 -140 147 -179 188 -196 205 -279 289 -285 287 -6 -2 -71 63 -369 368 -43 44 -81 89 -85 99 -3 10 -9 16 -13 12 -9 -8 -63 44 -63 61 0 7 -6 13 -13 13 -16 0 -70 54 -67 67 2 4 -7 13 -19 19 -27 14 -52 48 -54 73 -1 11 -5 17 -10 14 -9 -5 -57 35 -57 48 0 4 -36 44 -80 89 -44 46 -77 86 -75 91 3 4 0 11 -6 15 -8 5 -9 3 -4 -7 4 -8 -60 54 -143 136 -84 83 -152 154 -152 159 0 5 -25 34 -55 65 -30 31 -94 98 -142 150 -90 96 -211 224 -282 296 -21 22 -41 48 -44 58 -4 9 -13 17 -22 17 -8 0 -23 18 -32 39 -11 25 -26 42 -40 46 -19 4 -46 40 -56 72 -1 5 -5 7 -9 6 -13 -5 -59 40 -54 52 6 16 -4 27 -36 44 -16 8 -35 25 -44 39 -11 17 -12 22 -3 17 8 -5 1 6 -15 23 -32 34 -47 43 -25 15 13 -16 12 -17 -3 -4 -10 7 -16 17 -13 21 7 12 -105 125 -139 139 -16 6 -26 14 -23 18 4 3 15 0 24 -8 10 -7 0 7 -22 31 -49 55 -57 61 -71 56 -7 -3 -10 3 -7 14 3 12 -2 20 -16 25 -12 3 -21 12 -21 19 0 7 -13 28 -30 46 -16 18 -30 28 -30 20 0 -17 -11 -7 -14 14 -3 19 -126 149 -126 133 0 -19 -274 266 -275 286 -2 21 -92 122 -300 337 -83 85 -182 188 -221 229 -166 179 -839 861 -849 861 -5 0 -23 -8 -40 -18z m1750 -1762 c3 -5 1 -10 -4 -10 -6 0 -11 5 -11 10 0 6 2 10 4 10 3 0 8 -4 11 -10z m345 -370 c0 -5 -2 -10 -4 -10 -3 0 -8 5 -11 10 -3 6 -1 10 4 10 6 0 11 -4 11 -10z m3042 -3697 c57 -60 198 -205 315 -324 117 -119 213 -223 213 -231 0 -8 -24 -31 -52 -50 -29 -20 -322 -304 -651 -633 -652 -652 -601 -609 -652 -545 -49 61 -223 249 -372 401 -132 134 -163 171 -163 194 0 31 19 50 771 791 247 244 435 437 449 462 13 23 27 42 32 42 5 0 54 -48 110 -107z m-1619 -2318 c137 -138 155 -166 134 -198 -31 -46 -182 -202 -437 -452 -146 -143 -388 -381 -538 -530 -150 -148 -281 -271 -290 -273 -12 -2 -27 13 -47 45 -16 26 -97 116 -180 199 -162 162 -311 323 -339 365 -11 17 -15 36 -11 52 7 26 337 358 763 768 352 338 414 400 450 452 l33 47 172 -177 c94 -98 225 -232 290 -298z m-2372 -1522 c29 -32 169 -176 311 -321 142 -144 258 -269 258 -277 0 -12 -458 -477 -750 -761 -63 -62 -206 -204 -318 -318 -111 -113 -206 -206 -211 -206 -5 0 -26 21 -47 48 -21 26 -141 150 -267 276 -213 215 -287 301 -287 333 0 17 281 313 471 497 374 362 673 662 711 714 40 55 56 72 69 72 3 0 30 -26 60 -57z m-1720 -2200 c169 -170 309 -316 313 -326 4 -14 -35 -61 -163 -195 -93 -97 -195 -202 -227 -231 -216 -201 -783 -767 -818 -816 -23 -33 -47 -60 -53 -60 -10 0 -234 228 -447 453 -32 34 -88 89 -124 121 l-65 59 36 49 c19 26 277 287 572 578 294 292 564 563 598 603 34 39 64 72 67 72 3 0 143 -138 311 -307z m-7650 225 c11 -21 11 -22 -4 -9 -10 7 -17 17 -17 22 0 15 9 10 21 -13z m83 -85 c8 -20 3 -17 -35 23 l-34 37 32 -23 c18 -13 34 -29 37 -37z m56 -58 c19 -19 32 -35 29 -35 -3 0 -20 16 -39 35 -19 19 -32 35 -29 35 3 0 20 -16 39 -35z m104 -102 c8 -20 3 -17 -35 23 l-34 37 32 -23 c18 -13 34 -29 37 -37z m37 -40 c13 -16 12 -17 -3 -4 -17 13 -22 21 -14 21 2 0 10 -8 17 -17z m70 -70 c13 -16 12 -17 -3 -4 -10 7 -18 15 -18 17 0 8 8 3 21 -13z m90 -90 c13 -16 12 -17 -3 -4 -10 7 -18 15 -18 17 0 8 8 3 21 -13z m259 -260 c0 -8 -13 5 -110 105 l-105 107 108 -105 c59 -57 107 -106 107 -107z m4746 -1211 c21 -16 131 -125 243 -243 113 -118 226 -236 253 -263 51 -53 58 -77 31 -116 -18 -28 -167 -180 -708 -723 -404 -406 -522 -517 -549 -517 -10 0 -38 23 -64 51 -26 29 -141 147 -256 262 -239 242 -287 297 -279 327 7 26 130 166 219 249 38 36 224 218 414 405 580 573 604 596 632 596 14 0 43 -13 64 -28z m-3075 -489 c13 -16 12 -17 -3 -4 -17 13 -22 21 -14 21 2 0 10 -8 17 -17z m54 -53 c10 -11 16 -20 13 -20 -3 0 -13 9 -23 20 -10 11 -16 20 -13 20 3 0 13 -9 23 -20z m326 -327 c13 -16 12 -17 -3 -4 -17 13 -22 21 -14 21 2 0 10 -8 17 -17z"/>
<path d="M11940 21976 c0 -2 8 -10 18 -17 15 -13 16 -12 3 4 -13 16 -21 21 -21 13z"/>
<path d="M11980 21936 c0 -2 8 -10 18 -17 15 -13 16 -12 3 4 -13 16 -21 21 -21 13z"/>
<path d="M13340 20556 c0 -2 8 -10 18 -17 15 -13 16 -12 3 4 -13 16 -21 21 -21 13z"/>
</g>
</svg>